<svg width="373" height="246" viewBox="0 0 373 246" fill="none" xmlns="http://www.w3.org/2000/svg">
<path d="M170.368 29.2083L178.604 50.0903L199.486 58.3261L178.604 66.5618L170.368 87.4439L162.133 66.5618L141.25 58.3261L162.133 50.0903L170.368 29.2083Z" stroke="white" stroke-opacity="0.6" stroke-width="9.93014" stroke-linecap="round"/>
<path d="M84.6616 58.3255L219.263 193.476C197.837 175.896 181.904 126.45 218.164 91.8385C246.603 64.6919 280.788 71.3414 299.512 81.039C306.536 84.6764 315.725 85.0716 321.742 79.9389C329.691 73.1591 329.691 73.1591 329.691 73.1591V176.994L310.462 191.279L285.19 172.599V169.471C285.19 161.643 278.882 155.349 271.872 151.863C268.283 150.079 264.884 147.544 262.665 144.031C257.391 135.68 257.171 128.465 257.72 125.901" stroke="white" stroke-width="9.93014" stroke-linecap="round"/>
<path d="M302.222 119.308L308.815 125.901" stroke="white" stroke-width="9.93014" stroke-linecap="round" stroke-linejoin="round"/>
<path d="M5 41.2949L202.781 240.175" stroke="white" stroke-opacity="0.6" stroke-width="9.93014" stroke-linecap="round" stroke-linejoin="round"/>
<path d="M43.4575 137.988L132.459 226.989" stroke="white" stroke-width="9.93014" stroke-linecap="round" stroke-linejoin="round"/>
<path opacity="0.6" d="M355.544 6.40563V8.47319H352.737V17H350.156V8.47319H347.349V6.40563H355.544ZM371.101 6.40563V17H368.52V10.6464L366.151 17H364.068L361.684 10.6313V17H359.103V6.40563H362.151L365.124 13.7402L368.067 6.40563H371.101Z" fill="white"/>
</svg>
